<?xml version="1.0" encoding="utf-8"?>
<!-- Svg Vector Icons : http://www.onlinewebfonts.com/icon -->
<!DOCTYPE svg PUBLIC "-//W3C//DTD SVG 1.1//EN" "http://www.w3.org/Graphics/SVG/1.1/DTD/svg11.dtd">
<svg version="1.1" xmlns="http://www.w3.org/2000/svg" xmlns:xlink="http://www.w3.org/1999/xlink" x="0px" y="0px" viewBox="0 0 1000 1000" enable-background="new 0 0 1000 1000" xml:space="preserve">
<metadata> Svg Vector Icons : http://www.onlinewebfonts.com/icon </metadata>
<g><path d="M500,990C229.4,990,10,770.6,10,500C10,229.4,229.4,10,500,10c270.6,0,490,219.4,490,490C990,770.6,770.6,990,500,990z M488.7,808c35.5,0,64.4-28.8,64.4-64.4s-28.8-64.4-64.4-64.4c-35.6,0-64.4,28.8-64.4,64.4C424.3,779.2,453.1,808,488.7,808z M699,341.1c-5.7-83.7-90.4-153.9-198-154.2c-139.8-0.3-196.5,87.2-209.6,135.5c-11.4,41.9-9.3,81.9,21.5,88.9c50.8,11.4,59.7-16.6,66-41.9c5.9-23.7,19.2-49,61.2-74.9c32.4-20,94.2-13.4,115.2,7.6c37.1,37.1,27.8,81.7-41.9,142.7c-61.8,54.3-86.6,111.3-87.6,139.9c-0.9,26.9,6.7,56.1,40.9,60c34.3,3.8,58.3-15.7,64.7-41.9c8.6-35.2,23.8-59,57.1-89.5C622,482.9,704.6,423.7,699,341.1z"/></g>
</svg>