<?xml version="1.0" encoding="UTF-8"?> <svg xmlns="http://www.w3.org/2000/svg" viewBox="0 0 70.87 54.06"><defs><style>.cls-1{fill:#58595b;}</style></defs><title>icon-company-culture</title><g id="Layer_2" data-name="Layer 2"><g id="Õ__1" data-name="Õº≤„_1"><path class="cls-1" d="M9.68,28.12a5.79,5.79,0,0,0,11.5,0L21.57,25a5.79,5.79,0,0,0-5.75-6.5h-.77A5.79,5.79,0,0,0,9.3,25Z"></path><path class="cls-1" d="M49.3,25l.39,3.15a5.79,5.79,0,0,0,11.5,0L61.58,25a5.8,5.8,0,0,0-5.75-6.5h-.78A5.8,5.8,0,0,0,49.3,25Z"></path><path class="cls-1" d="M9.58,33.94A2,2,0,0,0,7,33.57L1.28,37.35A2.88,2.88,0,0,0,0,40l.67,6.78a2,2,0,0,0,2,1.8H12.85l-.56-5.72A6.2,6.2,0,0,1,15,37.12l.44-.29h0A7.39,7.39,0,0,1,9.58,33.94Z"></path><path class="cls-1" d="M69.6,37.35l-5.68-3.78a2,2,0,0,0-2.62.37,7.42,7.42,0,0,1-5.86,2.89h0l.42.28a6.24,6.24,0,0,1,2.73,5.78L58,48.61H68.21a2,2,0,0,0,2-1.8L70.86,40A2.89,2.89,0,0,0,69.6,37.35Z"></path><path class="cls-1" d="M54,39.88l-8.13-5.41a2,2,0,0,0-2.69.44,9.48,9.48,0,0,1-15.51,0A2,2,0,0,0,25,34.47l-8.13,5.41a2.91,2.91,0,0,0-1.26,2.68l1,9.7a2,2,0,0,0,2,1.8H52.33a2,2,0,0,0,2-1.8l1-9.7A2.91,2.91,0,0,0,54,39.88Z"></path><path class="cls-1" d="M27.56,24.2l.5,4a7.44,7.44,0,0,0,14.76,0l.49-4a7.43,7.43,0,0,0-7.38-8.34h-1A7.44,7.44,0,0,0,27.56,24.2Z"></path><path class="cls-1" d="M35.44,9.17a1.82,1.82,0,0,0,1.81-1.81V1.81a1.81,1.81,0,0,0-3.62,0V7.36A1.81,1.81,0,0,0,35.44,9.17Z"></path><path class="cls-1" d="M26.32,10.53a1.81,1.81,0,1,0,3-2L26.19,3.9a1.81,1.81,0,0,0-3,2Z"></path><path class="cls-1" d="M16.52,14.25l4.87,2.67a1.81,1.81,0,1,0,1.74-3.18l-4.87-2.67a1.81,1.81,0,1,0-1.74,3.18Z"></path><path class="cls-1" d="M42,11a1.81,1.81,0,0,0,2.51-.48l3.13-4.59a1.81,1.81,0,0,0-3-2L41.56,8.49A1.82,1.82,0,0,0,42,11Z"></path><path class="cls-1" d="M47,16.2a1.82,1.82,0,0,0,2.45.72l4.87-2.67a1.81,1.81,0,0,0-1.74-3.18l-4.87,2.67A1.82,1.82,0,0,0,47,16.2Z"></path></g></g></svg> 