<?xml version="1.0" encoding="utf-8"?>
<!-- Svg Vector Icons : http://www.onlinewebfonts.com/icon -->
<!DOCTYPE svg PUBLIC "-//W3C//DTD SVG 1.1//EN" "http://www.w3.org/Graphics/SVG/1.1/DTD/svg11.dtd">
<svg version="1.1" xmlns="http://www.w3.org/2000/svg" xmlns:xlink="http://www.w3.org/1999/xlink" x="0px" y="0px" viewBox="0 0 1000 1000" enable-background="new 0 0 1000 1000" xml:space="preserve">
<metadata> Svg Vector Icons : http://www.onlinewebfonts.com/icon </metadata>
<g><g transform="translate(0.000000,511.000000) scale(0.100000,-0.100000)"><path d="M1112.7,4868.4c-225.1-59.3-446-186.2-613.8-353.9c-171.9-176-263.9-317.1-343.7-538.1L100,3827.1V113.7v-3713.3l63.4-173.9c143.2-405.1,441.9-703.8,847-847l173.9-63.4h3805.4c3631.5,0,3811.6,2,3928.2,36.8c460.3,141.2,804.1,484.9,945.2,945.2c34.8,116.6,36.8,292.6,36.8,3825.9v3703.1l-55.2,149.3c-79.8,223-171.8,364.2-347.8,540.1c-171.8,171.9-388.7,294.6-619.9,353.9C8699,4915.5,1286.6,4915.5,1112.7,4868.4z M8973.2,4395.8C9231,4273.1,9409,4048,9460.1,3778c10.2-61.4,20.5-435.8,20.5-834.7c0-681.3-2-724.3-34.8-714c-20.5,6.1-290.5,122.8-599.5,259.8c-605.6,266-658.8,284.4-736.5,263.9c-28.7-8.2-519.7-343.7-1092.5-744.7c-572.9-401-1053.7-728.3-1068-728.3c-30.7,0-2295.5,939.1-2426.5,1004.6c-43,22.5-108.4,38.9-147.3,38.9c-49.1,0-470.6-190.3-1456.7-660.8L529.6,999.6l-6.1,1331.9c-6.1,1464.9-2,1511.9,116.6,1720.6C744.5,4234.2,965.4,4402,1168,4449c45,10.2,1710.4,16.4,3872.9,16.4l3795.2-4.1L8973.2,4395.8z M8858.6,2012.3l622-270.1v-712v-712l-986.1,4.1l-988.2,6.1l-2.1,650.6c-2.1,358,2.1,697.7,10.2,755l12.3,104.3l327.4,231.2c180,126.8,339.6,227.1,353.9,223C8222.3,2286.5,8514.9,2161.7,8858.6,2012.3z M4026.1,1603.1c358-149.4,648.6-278.2,648.6-286.4c-2-10.2-2-237.3-2-507.4v-491l-873.6,4.1l-875.6,6.1l-4.1,593.3c-2,327.3,0,628.1,6.1,673.1c12.3,75.7,16.4,79.8,221,176c112.5,55.2,212.8,100.2,218.9,100.2C3371.4,1873.2,3668.1,1750.4,4026.1,1603.1z M7066.4,911.6V318.3h-982.1h-982v409.2c0,266,8.2,409.2,20.5,409.2S5321.2,1063,5536,973s419.4-163.7,456.2-163.7c49.1,0,171.9,75.7,552.4,345.8c270.1,190.3,497.2,347.8,507.4,347.8C7060.3,1504.9,7066.4,1239,7066.4,911.6z M2483.5,880.9V318.3h-982h-982v100.2v98.2l967.7,462.4c529.9,253.7,971.8,462.4,982,464.4C2477.4,1443.5,2483.5,1189.9,2483.5,880.9z M2483.5-991.1v-879.8h-982h-982v879.8v879.7h982h982V-991.1z M4672.7-991.1v-879.8l-873.6,4.1l-875.6,6.1l-2.1,875.7l-2,873.6H3797h875.7V-991.1z M7066.4-991.1v-879.8h-982.1h-982v879.8v879.7h982h982.1V-991.1z M9480.6-991.1v-879.8l-986.1,4.1l-988.2,6.1l-2.1,875.7v873.6h988.2h988.2V-991.1z M2483.5-3282.5v-982h-577c-427.6,0-615.8,8.2-720.2,30.7c-227.1,49.1-399,165.7-525.8,364.2c-124.8,192.3-141.2,308.9-141.2,984.1v585.1h982h982V-3282.5z M4672.7-3282.5v-982l-873.6,4.1l-875.6,6.1l-2.1,961.6c0,529.9,2.1,967.7,6.1,977.9c4.1,8.2,399,14.3,877.7,14.3h867.5V-3282.5z M7066.4-3282.5v-982h-982.1h-982v982v982.1h982h982.1V-3282.5z M9480.6-2869.2c0-325.3-10.2-622-22.5-691.5c-65.5-360.1-331.4-619.9-695.6-683.3c-79.8-12.3-349.9-20.5-693.6-16.4l-562.6,6.1l-4.1,859.3c-2,472.6,2.1,912.5,8.2,977.9l10.2,116.6h980h980V-2869.2z"/></g></g>
</svg>