<?xml version="1.0" encoding="utf-8"?>
<!-- Svg Vector Icons : http://www.onlinewebfonts.com/icon -->
<!DOCTYPE svg PUBLIC "-//W3C//DTD SVG 1.1//EN" "http://www.w3.org/Graphics/SVG/1.1/DTD/svg11.dtd">
<svg version="1.1" xmlns="http://www.w3.org/2000/svg" xmlns:xlink="http://www.w3.org/1999/xlink" x="0px" y="0px" viewBox="0 0 1000 1000" enable-background="new 0 0 1000 1000" xml:space="preserve">
<metadata> Svg Vector Icons : http://www.onlinewebfonts.com/icon </metadata>
<g><g transform="translate(0.000000,511.000000) scale(0.100000,-0.100000)"><path d="M4402.5,4991.4c-590.6-81.5-1079.9-232.3-1606.3-499.2C2010.3,4096.8,1402.4,3560.5,918,2834C364.4,2008.6,100,1121.4,100,110.6C100-996.5,433.6-1985,1113.2-2879.6c150.7-200.2,541.2-600.5,768.6-790.8c944-785.9,2258.7-1206,3472.1-1104.7c1576.7,131,2916.1,929.2,3773.7,2253.8c1047.8,1613.7,1028,3744-49.4,5352.8c-751.3,1117-1880.7,1863.3-3205.3,2112.9C5566.4,5003.7,4691.6,5030.9,4402.5,4991.4z M7049.2,1739.2c91.5-47,210-187.8,244.7-294.1s19.8-276.8-34.6-378.1c-19.7-37.1-635.1-664.8-1366.6-1396.3L4563.1-1656.3l-832.8,832.8C2986.4-74.7,2895,24.1,2870.3,123c-59.3,219.9,49.4,467.1,247.1,568.4c113.7,59.3,311.4,64.3,427.5,14.8c44.5-19.8,284.2-242.2,536.3-494.2c252.1-252.1,467.1-459.7,481.9-459.7s464.6,439.9,1000.8,978.6c536.3,536.3,998.4,988.5,1025.6,1003.3C6718.1,1805.9,6915.8,1808.4,7049.2,1739.2z"/></g></g>
</svg>