<?xml version="1.0" encoding="utf-8"?>
<!-- Svg Vector Icons : http://www.onlinewebfonts.com/icon -->
<!DOCTYPE svg PUBLIC "-//W3C//DTD SVG 1.1//EN" "http://www.w3.org/Graphics/SVG/1.1/DTD/svg11.dtd">
<svg version="1.1" xmlns="http://www.w3.org/2000/svg" xmlns:xlink="http://www.w3.org/1999/xlink" x="0px" y="0px" viewBox="0 0 1000 1000" enable-background="new 0 0 1000 1000" xml:space="preserve">
<metadata> Svg Vector Icons : http://www.onlinewebfonts.com/icon </metadata>
<g><g transform="translate(0.000000,511.000000) scale(0.100000,-0.100000)"><path d="M4819.3,4519c-123-109.6-624.7-999.6-1745.4-3104.4C2814.4,928.3,2318.5-2.1,1972.5-651.8c-932.3-1747.3-1430.1-2654.6-1755-3187c-138.4-226.8-153.8-371-50-467.1l50-46.1l4749.8-3.8c3748.3-3.8,4761.3,0,4797.9,19.2c111.5,57.7,165.3,224.9,117.2,371c-13.5,42.3-78.8,161.5-144.2,267.2C9409.5-3173.7,8840.5-2155,7277.8,703.4C5553.5,3855.8,5190.2,4488.2,5074.9,4547.8C4984.6,4595.9,4894.2,4584.3,4819.3,4519z M5192.2,2056.6c115.3-51.9,169.2-103.8,223-219.1l46.1-96.1V405.4c0-1514.7,9.6-1420.5-159.5-1570.5c-111.5-96.1-221.1-128.8-396-117.2c-219.1,15.4-392.1,151.8-444,344.1c-13.5,48.1-19.2,534.4-15.4,1385.9c5.8,1305.2,5.8,1312.9,48.1,1389.8c51.9,96.1,149.9,190.3,236.4,228.7C4832.7,2110.4,5084.5,2106.6,5192.2,2056.6z M5240.2-1885.9c115.3-59.6,219.1-165.3,280.6-284.5c38.4-73,46.1-115.3,46.1-269.1c0-161.5-5.8-194.1-51.9-278.7c-61.5-115.3-167.2-221.1-284.5-280.6c-128.8-63.4-340.2-73.1-482.5-19.2c-469,176.8-542.1,813.1-124.9,1093.7c126.9,84.6,188.4,100,367.1,92.3C5111.4-1835.9,5165.3-1847.4,5240.2-1885.9z"/></g></g>
</svg>