<?xml version="1.0" encoding="utf-8"?>
<!-- Svg Vector Icons : http://www.onlinewebfonts.com/icon -->
<!DOCTYPE svg PUBLIC "-//W3C//DTD SVG 1.1//EN" "http://www.w3.org/Graphics/SVG/1.1/DTD/svg11.dtd">
<svg version="1.1" xmlns="http://www.w3.org/2000/svg" xmlns:xlink="http://www.w3.org/1999/xlink" x="0px" y="0px" viewBox="0 0 1000 1000" enable-background="new 0 0 1000 1000" xml:space="preserve">
<metadata> Svg Vector Icons : http://www.onlinewebfonts.com/icon </metadata>
<g><path d="M150.8,456.8c23.4,0,42.3-18.9,42.3-42.3V245.2c0-23.4-19-42.4-42.3-42.4c-23.4,0-42.3,19-42.3,42.4v169.3C108.4,437.9,127.3,456.8,150.8,456.8L150.8,456.8z"/><path d="M332.5,444.5c7.7,7.7,18.3,12.4,30,12.4c23.4,0,42.3-18.9,42.3-42.3c0-11.6-4.7-22.3-12.4-29.9L380,372.2h278.9c23.4,0,42.3-19,42.3-42.4c0-23.4-19-42.3-42.3-42.3H380l12.4-12.4c7.7-7.7,12.4-18.2,12.4-29.9c0-23.4-19-42.4-42.3-42.4c-11.7,0-22.3,4.7-29.9,12.4l-84.7,84.7c-3.8,3.8-6.8,8.3-8.9,13.2c0,0.1-0.1,0.1-0.2,0.2c-2.2,5-3.3,10.6-3.3,16.5c0,11.7,4.7,22.3,12.4,30L332.5,444.5L332.5,444.5z"/><path d="M658.8,541.5"/><path d="M746.6,774.9L746.6,774.9l-65.1-65.3l-32.7,32.7l97.9,97.9l144-143.9L858,663.6L746.6,774.9z"/><path d="M503.8,882.5H122c-30.9,0-56-25.1-56-56V154.3c0-30.9,25.1-56,56-56h560.1c30.9,0,56,25.1,56,56V488c8.7-0.8,17.5-1.3,26.4-1.3c10,0,19.9,0.6,29.7,1.6V126.4c0-46.4-39.7-84-88.6-84h-607C49.7,42.4,10,80,10,126.4v728c0,46.4,39.7,84,88.6,84h437.6C523.4,921.1,512.4,902.5,503.8,882.5L503.8,882.5z"/><path d="M769.8,517.2c-121.6,0-220.2,98.6-220.2,220.2c0,121.6,98.6,220.2,220.2,220.2C891.4,957.6,990,859,990,737.4C990,615.8,891.4,517.2,769.8,517.2z M769.8,905.8c-93,0-168.3-75.4-168.3-168.3c0-93,75.4-168.3,168.3-168.3c93,0,168.3,75.4,168.3,168.3C938.1,830.4,862.7,905.8,769.8,905.8z"/><path d="M481.9,770.7c0-60,18.7-115.7,50.5-161.5L477.1,554c-7.7-7.7-18.3-12.4-29.9-12.4c-23.4,0-42.3,19-42.3,42.3c0,11.7,4.7,22.3,12.4,30l12.4,12.4H150.8c-23.4,0-42.3,19-42.3,42.4c0,23.4,19,42.3,42.3,42.3h278.9l-12.4,12.4c-7.7,7.7-12.4,18.3-12.4,29.9c0,23.4,19,42.3,42.3,42.3c11.6,0,22.2-4.7,29.9-12.4l4.9-4.9C481.9,775.8,481.9,773.2,481.9,770.7z"/></g>
</svg>