<?xml version="1.0" encoding="UTF-8" standalone="no"?>
<svg
   xmlns:dc="http://purl.org/dc/elements/1.1/"
   xmlns:cc="http://creativecommons.org/ns#"
   xmlns:rdf="http://www.w3.org/1999/02/22-rdf-syntax-ns#"
   xmlns:svg="http://www.w3.org/2000/svg"
   xmlns="http://www.w3.org/2000/svg"
   xmlns:sodipodi="http://sodipodi.sourceforge.net/DTD/sodipodi-0.dtd"
   xmlns:inkscape="http://www.inkscape.org/namespaces/inkscape"
   viewBox="0 0 3860.84 1831.51"
   version="1.1"
   id="svg128"
   sodipodi:docname="devops-loop.svg"
   inkscape:version="0.92.4 (5da689c313, 2019-01-14)">
  <metadata
     id="metadata132">
    <rdf:RDF>
      <cc:Work
         rdf:about="">
        <dc:format>image/svg+xml</dc:format>
        <dc:type
           rdf:resource="http://purl.org/dc/dcmitype/StillImage" />
      </cc:Work>
    </rdf:RDF>
  </metadata>
  <sodipodi:namedview
     pagecolor="#ffffff"
     bordercolor="#666666"
     borderopacity="1"
     objecttolerance="10"
     gridtolerance="10"
     guidetolerance="10"
     inkscape:pageopacity="0"
     inkscape:pageshadow="2"
     inkscape:window-width="2880"
     inkscape:window-height="1586"
     id="namedview130"
     showgrid="false"
     inkscape:zoom="0.65640395"
     inkscape:cx="1742.9323"
     inkscape:cy="1149.7733"
     inkscape:window-x="-11"
     inkscape:window-y="-11"
     inkscape:window-maximized="1"
     inkscape:current-layer="svg128" />
  <defs
     id="defs4">
    <style
       id="style2">.cls-1{fill:#376cb5;}.cls-2{fill:#00a6a6;}.cls-3{fill:#f68c39;}.cls-4{fill:#644ea0;}.cls-5{fill:#50be98;}.cls-6{fill:#fff;}.cls-7{fill:#515251;}</style>
  </defs>
  <title
     id="title6">devops-loop</title>
  <g
     id="g1111">
    <path
       style="fill:#376cb5;stroke:#ffffff;stroke-opacity:1;stroke-width:20;stroke-miterlimit:4;stroke-dasharray:none"
       inkscape:connector-curvature="0"
       id="path8"
       d="m 2621.63,1357.14 q -77.15,-52.08 -160.72,-123.77 c -132,-113.36 -247.22,-239.5 -325.69,-330 104,-108.65 196.47,-198.8 280.63,-272.66 l 25.27,-246.8 -236.6,-24.24 c -88.31,76.59 -184.54,169 -292.74,280.84 L 1676.1,893.25 c -25.09,27.46 -49,53.76 -71.53,78.5 C 1451,1140.47 1344,1256.52 1255.78,1335.16 l 205.31,21 -28.6,279.18 c 122.07,-98.79 246.9,-235.9 425.92,-432.51 13.88,-15.25 27.89,-30.61 42.12,-46.25 84.24,95.7 201.28,220.92 336.69,337.22 q 78.42,67.37 154.81,121.72 l -3.71,-255 z"
       class="cls-1" />
    <path
       style="fill:#00a6a6;stroke:#ffffff;stroke-opacity:1;stroke-width:20;stroke-miterlimit:4;stroke-dasharray:none"
       inkscape:connector-curvature="0"
       id="path10"
       d="m 3516,406.77 -235.83,41.94 c -86.32,-66.4 -185.14,-105.4 -276.45,-105.4 -178.63,0 -350.11,78.79 -587.88,287.43 l 25.27,-246.8 -236.6,-24.24 C 2280.72,293.62 2351,239.26 2418,194.31 2615.43,61.76 2801.56,0 3003.73,0 c 160.86,0 325.75,58.61 469.13,164.19 z"
       class="cls-2" />
    <path
       style="fill:#f68c39;stroke:#ffffff;stroke-opacity:1;stroke-width:20;stroke-miterlimit:4;stroke-dasharray:none"
       inkscape:connector-curvature="0"
       id="path12"
       d="m 3860.84,910.8 a 910.5,910.5 0 0 1 -72.34,356.2 928.5,928.5 0 0 1 -81.87,152.54 l -221.91,25.84 -31.54,-270.75 a 575.45,575.45 0 0 0 64.35,-263.79 c 0,-191 -103.74,-359.34 -237.35,-462.09 L 3516,406.77 3472.85,164.19 a 966.71,966.71 0 0 1 119.38,104.05 c 82,84.1 147,180.33 193.21,286 50.02,114.44 75.4,234.42 75.4,356.56 z"
       class="cls-3" />
    <path
       style="fill:#644ea0;stroke:#ffffff;stroke-opacity:1;stroke-width:20;stroke-miterlimit:4;stroke-dasharray:none"
       inkscape:connector-curvature="0"
       id="path14"
       d="m 3706.63,1419.5 a 939.21,939.21 0 0 1 -112.94,139.28 c -83.35,84.83 -179.94,151.69 -287.11,198.69 -112,49.13 -230.12,74 -350.95,74 -122.39,0 -253.7,-36.45 -390.35,-108.33 q -55.49,-29.21 -113.08,-66.72 -29.84,-19.32 -60.17,-40.91 l -3.71,-255 233.31,-3.4 h 0.07 a 1118.38,1118.38 0 0 0 97.68,59.25 c 88.45,47.43 168.08,71.81 236.25,71.81 212.82,0 402.56,-129.08 497.55,-313.61 l 31.54,270.75 z"
       class="cls-4" />
    <path
       style="fill:#644ea0;stroke:#ffffff;stroke-opacity:1;stroke-width:20;stroke-miterlimit:4;stroke-dasharray:none"
       inkscape:connector-curvature="0"
       id="path16"
       d="m 1461.09,1356.19 -28.6,279.18 q -22.18,17.94 -44.38,34.29 c -154.35,113.44 -305,161.85 -503.92,161.85 -201.6,0 -419,-85.79 -581.58,-229.45 A 894,894 0 0 1 175.83,1464 l 287,22.16 15,-194.1 a 546.39,546.39 0 0 0 52.17,52.77 c 119.6,105.71 261.38,143.37 354.22,143.37 146.06,0 236.92,-33 371.59,-153 z"
       class="cls-4" />
    <path
       style="fill:#f68c39;stroke:#ffffff;stroke-opacity:1;stroke-width:20;stroke-miterlimit:4;stroke-dasharray:none"
       inkscape:connector-curvature="0"
       id="path18"
       d="m 343.31,910.8 c 0,177.82 64.91,300.66 134.53,381.25 l -15,194.1 -287,-22.16 A 874.74,874.74 0 0 1 85.44,1311.8 C 28.74,1189.73 0,1054.82 0,910.8 0,767 27.5,633.14 81.72,513.06 A 847.84,847.84 0 0 1 294.79,224.43 q 21,-18.59 43.28,-35.79 l 3.58,270.48 213.63,-2.83 C 436.54,545.37 343.31,691.65 343.31,910.8 Z"
       class="cls-3" />
    <path
       style="fill:#00a6a6;stroke-width:20;stroke-miterlimit:4;stroke-dasharray:none;stroke:#ffffff;stroke-opacity:1"
       inkscape:connector-curvature="0"
       id="path20"
       d="m 1277.37,266.47 3.54,242.87 c -147.7,-108.94 -283.47,-166 -396.72,-166 -98.29,0 -223.62,34 -328.91,113 l -213.63,2.83 -3.58,-270.48 C 493.66,68.2 689.7,0 884.19,0 c 201,0 415.93,88.38 639.79,262.86 z"
       class="cls-2" />
    <path
       style="fill:#50be98;stroke:#ffffff;stroke-opacity:1;stroke-width:20;stroke-miterlimit:4;stroke-dasharray:none"
       inkscape:connector-curvature="0"
       id="path22"
       d="M 1911.78,640.54 1676.1,893.25 c -72.23,-85.3 -181.24,-207.23 -308.3,-315 q -44.07,-37.32 -86.89,-68.91 l -3.54,-242.87 246.63,-3.61 q 32.82,25.54 65.84,53.55 c 131.39,111.42 242.91,232.53 321.94,324.13 z"
       class="cls-5" />
    <path
       style="fill:#50be98;stroke:#ffffff;stroke-opacity:1;stroke-width:20;stroke-miterlimit:4;stroke-dasharray:none"
       inkscape:connector-curvature="0"
       id="path24"
       d="m 2388.32,1360.54 3.71,255 q -76.19,-54.21 -154.81,-121.72 C 2101.81,1377.52 1984.77,1252.3 1900.53,1156.6 l 234.69,-253.2 c 78.47,90.47 193.67,216.61 325.69,330 q 83.45,71.67 160.72,123.77 z"
       class="cls-5" />
    <path
       style="fill:#ffffff"
       inkscape:connector-curvature="0"
       id="path26"
       d="m 553.6,227.91 c -9.68,5 -15.21,12 -16.56,20.47 -1.35,8.47 1.47,17.73 8.06,27.75 13.84,20.85 28.67,26.26 46.4,17.18 7.5,-3.81 15.72,-10 25.17,-18.4 q 4.27,9 8.42,18 a 102.1,102.1 0 0 1 -26.36,18.83 c -14.9,7.67 -28.25,9.88 -41.34,6.36 -13.09,-3.52 -25.06,-12.49 -36,-27.42 -6.86,-9.4 -11,-18.9 -11.95,-28.69 a 42.55,42.55 0 0 1 7,-28.05 c 5.74,-8.85 14.62,-16.61 26.54,-22.82 a 100.5,100.5 0 0 1 41.07,-10.91 q 0.23,10.44 0.64,20.85 a 141.37,141.37 0 0 0 -16.44,2 51.81,51.81 0 0 0 -14.65,4.85 z"
       class="cls-6" />
    <path
       style="fill:#ffffff"
       inkscape:connector-curvature="0"
       id="path28"
       d="m 742.54,205 c 4.1,18.13 1.63,32.85 -6.1,44.37 -7.73,11.52 -20.31,19.14 -37.79,23.84 -17.48,4.7 -32,4.44 -45,-1.47 -13,-5.91 -23.33,-17.05 -31.16,-34 -7.83,-16.95 -9.08,-31.84 -2.49,-44.74 6.59,-12.9 20.48,-23.06 41.71,-29.08 21.23,-6.02 39.57,-4.85 53.61,2.5 14.04,7.35 23.1,20.4 27.22,38.58 z m -92.92,23 c 4.69,11.61 10.62,19.52 17.78,23.86 7.16,4.34 15.53,5.06 25.51,2.36 19.87,-5.32 27.34,-19.41 20.72,-43.79 -6.62,-24.38 -22.21,-34.18 -44.89,-27.91 -11.31,3.17 -18.55,8.82 -21.67,16.52 -3.12,7.7 -2.13,17.28 2.55,28.89 z"
       class="cls-6" />
    <path
       style="fill:#ffffff"
       inkscape:connector-curvature="0"
       id="path30"
       d="m 882.45,198.46 c 0,18.53 -6.67,32 -18.65,41.21 -11.98,9.21 -28.72,13.53 -50.45,14.41 q -17.42,0.72 -34.55,2.56 -7.74,-55.33 -20,-110.38 22.71,-2.73 45.83,-3.86 c 24,-1.16 43.59,4 57.34,14.28 13.75,10.28 20.47,24.43 20.48,41.78 z m -30.27,-1 c -1,-24 -15.9,-36.84 -43.18,-35.76 -5.39,0.23 -10.75,0.53 -16.11,0.9 q 5.85,36.18 9.76,72.43 5.77,-0.34 11.56,-0.57 c 25.79,-0.89 38.97,-12.28 37.97,-37 z"
       class="cls-6" />
    <path
       style="fill:#ffffff"
       inkscape:connector-curvature="0"
       id="path32"
       d="m 980.53,273.42 a 550.16,550.16 0 0 0 -73,-14.95 q 4.68,-55.79 4.87,-112.32 a 661.34,661.34 0 0 1 86.87,16.23 q -1.23,9.76 -2.61,19.47 -26.68,-7 -53.39,-11.53 -0.78,12.36 -1.77,24.69 23.92,4.22 47.88,10.41 -1.49,9.68 -3.12,19.32 -23.22,-6.11 -46.47,-10.26 -1.37,14.45 -3,28.81 23.84,4.36 47.7,10.88 -1.94,9.65 -3.96,19.25 z"
       class="cls-6" />
    <path
       style="fill:#ffffff"
       inkscape:connector-curvature="0"
       id="path34"
       d="m 1535.42,456.67 q -12.74,12.7 -27.41,11.47 -14.67,-1.23 -29.31,-15.9 l -7.15,-7.18 -28,28 -16.68,-16.72 78.84,-78.65 25.13,25.19 q 14.31,14.34 15.58,28 1.27,13.66 -11,25.79 z m -50.17,-25.27 5.49,5.5 q 7.68,7.71 14.55,8.5 6.87,0.79 12.7,-5 5.88,-5.86 5.48,-11.88 -0.4,-6.02 -7.23,-12.85 l -7.59,-7.61 z"
       class="cls-6" />
    <path
       style="fill:#ffffff"
       inkscape:connector-curvature="0"
       id="path36"
       d="m 1496,525.68 78.86,-78.68 16.67,16.72 -65,64.88 31.91,32 -13.81,13.78 z"
       class="cls-6" />
    <path
       style="fill:#ffffff"
       inkscape:connector-curvature="0"
       id="path38"
       d="m 1606.4,636.34 13.07,-24.44 -28.68,-28.74 -24.47,13 -18,-18 106.96,-51.16 20.39,20.45 -51.3,106.9 z m 23.11,-42.42 q 17.6,-33.37 20,-37.7 2.4,-4.33 3.86,-6.7 -8.68,5.1 -44.31,23.86 z"
       class="cls-6" />
    <path
       style="fill:#ffffff"
       inkscape:connector-curvature="0"
       id="path40"
       d="m 1704,734.22 -21.15,-21.22 25.43,-93.79 -0.49,-0.49 q -14.77,16.78 -21.52,23.51 l -37.1,37 -14.9,-14.93 78.84,-78.66 21,21.09 -24.9,93.15 0.38,0.38 q 14.56,-16.14 20.93,-22.49 l 37.32,-37.22 15,15 z"
       class="cls-6" />
    <path
       style="fill:#ffffff"
       inkscape:connector-curvature="0"
       id="path42"
       d="m 1738.49,1086.22 30.49,29.94 -16.54,16.84 -79.44,-78 22.73,-23.15 q 15.9,-16.2 29.44,-18.18 13.54,-1.98 25.54,9.81 a 29.54,29.54 0 0 1 8.68,16.11 35.74,35.74 0 0 1 -2.17,19.33 q 44.41,8.38 57.57,10.63 l -18.36,18.69 -49.11,-11 z m -13.7,-13.45 5.34,-5.43 q 7.84,-8 8.92,-14.41 1.08,-6.41 -4.64,-12 -5.64,-5.55 -11.85,-4 -6.21,1.55 -14.22,9.69 l -5,5.11 z"
       class="cls-6" />
    <path
       style="fill:#ffffff"
       inkscape:connector-curvature="0"
       id="path44"
       d="m 1869.53,1013.76 -44.94,45.77 -79.46,-78 44.94,-45.77 13.81,13.56 -28.4,28.92 17.45,17.13 26.42,-26.9 13.8,13.55 -26.42,26.91 20.49,20.12 28.4,-28.92 z"
       class="cls-6" />
    <path
       style="fill:#ffffff"
       inkscape:connector-curvature="0"
       id="path46"
       d="m 1885.81,997.19 -79.46,-78 16.54,-16.85 65.55,64.36 31.65,-32.23 13.91,13.64 z"
       class="cls-6" />
    <path
       style="fill:#ffffff"
       inkscape:connector-curvature="0"
       id="path48"
       d="m 1992.5,888.54 -44.94,45.76 -79.46,-78 44.9,-45.79 13.8,13.56 -28.35,28.93 17.45,17.13 26.41,-26.9 13.81,13.55 -26.42,26.91 20.49,20.12 28.39,-28.92 z"
       class="cls-6" />
    <path
       style="fill:#ffffff"
       inkscape:connector-curvature="0"
       id="path50"
       d="M 2056.54,823.31 2032,810.5 l -28.45,29 13.26,24.34 -17.81,18.16 -52.24,-106.39 20.22,-20.6 107.44,50.19 z m -42.65,-22.66 q -33.56,-17.25 -37.91,-19.56 c -2.9,-1.53 -5.15,-2.8 -6.74,-3.79 q 5.19,8.63 24.31,44.06 z"
       class="cls-6" />
    <path
       style="fill:#ffffff"
       inkscape:connector-curvature="0"
       id="path52"
       d="m 2108.18,726.59 q 10.77,10.56 9.35,24.39 -1.42,13.83 -15,27.64 -12.5,12.72 -26.88,17.8 L 2060,781.05 a 129.32,129.32 0 0 0 18.42,-8.65 56.06,56.06 0 0 0 11.47,-8.75 c 3.63,-3.7 5.71,-7.22 6.24,-10.59 0.53,-3.37 -0.61,-6.41 -3.4,-9.15 a 9.81,9.81 0 0 0 -5.44,-2.78 20.57,20.57 0 0 0 -7.27,0.39 138.88,138.88 0 0 0 -15.49,5 q -10.58,3.91 -17.3,4.46 a 34.48,34.48 0 0 1 -13,-1.38 29.26,29.26 0 0 1 -11.92,-7.44 q -10.54,-10.35 -9.56,-23.42 0.98,-13.07 13.37,-25.68 a 65.24,65.24 0 0 1 13.07,-10.38 113.51,113.51 0 0 1 15.69,-7.71 l 7.76,18.29 a 112.23,112.23 0 0 0 -14,6.94 47.56,47.56 0 0 0 -9.06,7.17 c -3.14,3.19 -4.79,6.36 -5,9.52 a 10.27,10.27 0 0 0 3.31,8.27 10,10 0 0 0 4.9,2.78 16,16 0 0 0 6.43,-0.13 q 3.76,-0.74 16.06,-5.21 16.26,-5.91 25.68,-4.79 9.42,1.12 17.22,8.78 z"
       class="cls-6" />
    <path
       style="fill:#ffffff"
       inkscape:connector-curvature="0"
       id="path54"
       d="m 2189.33,688.09 -44.94,45.76 -79.46,-78 44.94,-45.76 13.8,13.56 -28.39,28.91 17.45,17.13 26.41,-26.9 13.86,13.53 -26.42,26.9 20.42,20.12 28.39,-28.91 z"
       class="cls-6" />
    <path
       style="fill:#ffffff"
       inkscape:connector-curvature="0"
       id="path56"
       d="m 2612.27,1607.81 q 5.85,-46.56 15.23,-91.92 l -0.67,-0.41 c -8.19,15.82 -13.74,26.32 -16.78,31.42 q -13.23,22.27 -26.42,44.55 -11.51,-6.87 -22.83,-14.17 30,-47 60.06,-93.79 14.86,9.59 30.08,18.34 -8.71,44.13 -14,89.42 l 0.5,0.26 q 34.62,-30 66.24,-62.27 15.72,7.34 31.7,13.84 -20.91,51.6 -41.66,103.28 -12.7,-5.16 -25.27,-10.77 10.67,-24.12 21.34,-48.21 c 1,-2.27 2.22,-4.88 3.61,-7.81 1.39,-2.93 5.26,-10.67 11.56,-23.21 l -0.7,-0.31 q -32.31,33.35 -67.81,64.38 -12.18,-6.09 -24.18,-12.62 z"
       class="cls-6" />
    <path
       style="fill:#ffffff"
       inkscape:connector-curvature="0"
       id="path58"
       d="m 2856.62,1636.47 c -3.37,18.11 -11.19,31.11 -24,38.53 -12.81,7.42 -29.75,8.7 -50.09,3.11 -20.34,-5.59 -34.39,-15.42 -41.75,-28.39 -7.36,-12.97 -7.58,-28.28 -1.24,-45.68 6.34,-17.4 16,-28.91 28.6,-34.93 12.6,-6.02 27.26,-6.37 44.72,-1.56 17.46,4.81 29.74,12.59 37.28,24.27 7.54,11.68 9.86,26.47 6.48,44.65 z m -90.18,-23 c -3.79,11.85 -4,21.64 -0.49,29.33 3.51,7.69 10.82,13.2 21.74,16.21 22,6 35.84,-3.94 41.24,-28.33 5.45,-24.54 -1.72,-38.82 -21.29,-44.17 -9.87,-2.71 -18.13,-1.92 -25,2.55 -6.87,4.47 -12.39,12.55 -16.2,24.4 z"
       class="cls-6" />
    <path
       style="fill:#ffffff"
       inkscape:connector-curvature="0"
       id="path60"
       d="m 2994.49,1705.39 q -18.31,0 -36.61,-0.9 a 807.85,807.85 0 0 1 -49,-88.63 l -0.75,-0.09 c -0.75,14.9 -1.43,25.51 -2.18,31.81 q -3.08,26 -6.12,52.05 -12.81,-1.53 -25.58,-3.49 8.23,-55.08 16.64,-110.12 15.53,2.37 31.12,4 a 786.81,786.81 0 0 0 48.12,86.94 h 0.63 c -0.47,-14.5 -0.57,-24.74 -0.37,-30.73 q 0.84,-26.34 1.72,-52.68 11.16,0.38 22.33,0.4 -0.06,55.75 0.05,111.44 z"
       class="cls-6" />
    <path
       style="fill:#ffffff"
       inkscape:connector-curvature="0"
       id="path62"
       d="m 3028.67,1704.72 q -2.49,-55.63 -4.79,-111.26 12.39,-0.51 24.75,-1.45 4.3,55.52 8.79,111 -14.37,1.12 -28.75,1.71 z"
       class="cls-6" />
    <path
       style="fill:#ffffff"
       inkscape:connector-curvature="0"
       id="path64"
       d="m 3143.3,1691.74 q -14.19,2.65 -28.45,4.79 -7,-45.33 -13.83,-90.67 -16.17,2.42 -32.42,4.09 l -2,-19.55 a 690.57,690.57 0 0 0 87.18,-14.65 q 2.27,9.55 4.52,19.13 -16,3.73 -32.05,6.75 8.45,45.06 17.05,90.11 z"
       class="cls-6" />
    <path
       style="fill:#ffffff"
       inkscape:connector-curvature="0"
       id="path66"
       d="m 3294.78,1587 c 7.46,16.85 8.3,32 1.82,45.43 -6.48,13.43 -19.81,24 -39.73,30.89 -19.92,6.89 -37,6.63 -50.24,0 -13.24,-6.63 -22,-19.11 -26.64,-37.05 -4.64,-17.94 -3.14,-32.9 3.72,-44.93 6.86,-12.03 18.7,-20.58 35.79,-26.45 17.09,-5.87 31.68,-6.4 44.57,-1 12.89,5.4 23.23,16.23 30.71,33.11 z m -87.52,32 c 3.55,11.93 8.86,20.15 16.09,24.51 7.23,4.36 16.31,4.82 27,1.14 21.54,-7.46 27.43,-23.5 18.11,-46.68 -9.32,-23.18 -23.41,-31 -42.56,-24.42 -9.65,3.32 -16,8.62 -19.15,16.21 -3.15,7.59 -3.03,17.31 0.51,29.24 z"
       class="cls-6" />
    <path
       style="fill:#ffffff"
       inkscape:connector-curvature="0"
       id="path68"
       d="m 3349.58,1575.14 q 10,18.87 20.08,37.73 -13,6.89 -26.27,13.26 -24.36,-50.07 -48.57,-100.22 15.66,-7.54 31,-15.9 c 14.29,-7.8 26,-11.68 35.73,-11.17 9.73,0.51 17.62,5.31 23.7,14.75 a 26.37,26.37 0 0 1 4.13,18.08 c -0.84,6.55 -3.83,13.12 -9,19.59 a 623.18,623.18 0 0 0 59.91,19.57 q -13.81,9.21 -27.9,17.79 -25.47,-9.49 -49.67,-20.55 -6.56,3.6 -13.14,7.07 z m -9,-17 q 3.89,-2.06 7.74,-4.15 c 7.58,-4.11 12.5,-8.37 14.8,-12.56 2.3,-4.19 2.05,-8.61 -0.66,-13.19 -2.71,-4.58 -6.36,-6.74 -11,-6.65 -4.64,0.09 -10.59,2.21 -18,6.23 q -3.48,1.89 -7,3.73 7.06,13.36 14.12,26.64 z"
       class="cls-6" />
    <path
       style="fill:#ffffff"
       inkscape:connector-curvature="0"
       id="path70"
       d="m 2779.68,233.89 c 6.72,17.08 6.32,32.24 -0.25,45.6 -6.57,13.36 -19.06,24.27 -37.65,34 q -14.9,7.81 -29.43,16.54 -28.72,-47.71 -57.63,-95.3 19.17,-11.52 38.88,-21.72 c 20.52,-10.6 38.93,-13.5 54.09,-9.52 15.16,3.98 25.7,14.4 31.99,30.4 z m -26,11.52 c -9.58,-21.82 -26.45,-27.83 -49.79,-15.93 q -6.88,3.56 -13.72,7.26 17.45,31.78 34.81,63.62 4.92,-2.67 9.87,-5.24 c 22.15,-11.41 28.67,-27.26 18.83,-49.71 z"
       class="cls-6" />
    <path
       style="fill:#ffffff"
       inkscape:connector-curvature="0"
       id="path72"
       d="m 2888,260.09 a 587.43,587.43 0 0 0 -64.69,18.22 q -18.18,-52.63 -36.56,-105.2 a 697.81,697.81 0 0 1 77,-21.71 q 2.13,9.45 4.25,18.88 -23.93,5.29 -47.51,12.32 3.53,11.7 7.06,23.41 21.14,-6.3 42.59,-11.15 l 4.32,18.86 q -20.8,4.69 -41.34,10.81 4.14,13.75 8.26,27.51 21,-6.27 42.44,-11 2.06,9.54 4.18,19.05 z"
       class="cls-6" />
    <path
       style="fill:#ffffff"
       inkscape:connector-curvature="0"
       id="path74"
       d="m 2988.29,170.18 c 0.5,12 -3.47,21.27 -11.51,28.1 -8.04,6.83 -19.56,10.85 -34.82,12.62 q -5.6,0.65 -11.19,1.41 2.68,19.62 5.35,39.24 -12.2,1.65 -24.34,3.8 -9.78,-54.81 -19.78,-109.59 21.75,-3.88 43.67,-6.37 c 16.66,-1.88 29.65,0.14 38.6,5.43 8.95,5.29 13.54,13.85 14.02,25.36 z m -60.15,23 c 3,-0.4 5.89,-0.78 8.84,-1.13 8.27,-1 14.31,-3 18.19,-6.27 3.88,-3.27 5.62,-7.56 5.16,-13 -0.46,-5.44 -2.6,-9.45 -6.45,-11.76 -3.85,-2.31 -9.68,-3.08 -17.41,-2.18 q -6.43,0.74 -12.85,1.61 2.27,16.31 4.52,32.69 z"
       class="cls-6" />
    <path
       style="fill:#ffffff"
       inkscape:connector-curvature="0"
       id="path76"
       d="m 3013.38,246.28 q -0.18,-55.68 -0.55,-111.37 14.64,0 29.27,0.54 -1.62,45.9 -3.36,91.8 24.32,1 48.55,3.86 -1.14,9.69 -2.3,19.37 a 587.9,587.9 0 0 0 -71.61,-4.2 z"
       class="cls-6" />
    <path
       style="fill:#ffffff"
       inkscape:connector-curvature="0"
       id="path78"
       d="m 3226.35,226.13 c -6,17.44 -15.55,29.06 -27.94,35.48 -12.39,6.42 -26.92,7.2 -44.29,2.95 -17.37,-4.25 -29.78,-11.57 -37.8,-23 -8.02,-11.43 -11,-26.16 -8.41,-44.52 2.59,-18.36 9.91,-31.65 22.59,-39.42 12.68,-7.77 29.83,-9.55 50.69,-4.47 20.86,5.08 35.38,14.67 43,27.46 7.62,12.79 8.2,28.07 2.16,45.52 z m -90.47,-24.22 c -2.3,12.24 -1.42,21.93 2.41,29.13 3.83,7.2 10.61,11.86 20.5,14.27 19.7,4.87 33.05,-3.95 40.29,-28 7.24,-24.05 -0.17,-39.55 -22.47,-45.06 -11.13,-2.71 -20.26,-1.41 -27.11,3.64 -6.85,5.05 -11.32,13.8 -13.62,26.02 z"
       class="cls-6" />
    <path
       style="fill:#ffffff"
       inkscape:connector-curvature="0"
       id="path80"
       d="m 3292.77,242.72 q 22.18,-14.91 45.89,-28.44 14.45,7.53 28.62,15.78 a 696.26,696.26 0 0 0 -71.69,38.63 q -9.57,19.44 -19.17,38.88 -11.3,-5.6 -22.76,-10.68 8.61,-19.49 17.19,-39 a 732.23,732.23 0 0 0 -15.71,-80.48 q 15.17,5.53 30.13,11.8 4.73,26.87 7.5,53.51 z"
       class="cls-6" />
    <path
       style="fill:#ffffff"
       inkscape:connector-curvature="0"
       id="path82"
       d="m 3639.41,627.94 c -17,7.12 -32,7.77 -45.1,2.72 -13.1,-5.05 -23.35,-15.55 -31.82,-31.72 -8.47,-16.17 -11.37,-30.69 -8.22,-44.52 3.15,-13.83 12.17,-25.94 27.71,-36.06 15.54,-10.12 30.43,-13.23 44.77,-8.59 14.34,4.64 27.11,16.61 37.2,35.79 10.09,19.18 12.52,36.37 8.05,50.57 -4.47,14.2 -15.55,24.69 -32.59,31.81 z m -42.26,-84.67 c -10.7,6.34 -17.38,13.45 -20.2,21.19 -2.82,7.74 -1.76,16.08 3.06,25.26 9.56,18.31 25,22.49 47.82,12 22.82,-10.49 29.48,-26.35 18.75,-46.92 -5.39,-10.25 -12.46,-16.37 -20.82,-18.26 -8.36,-1.89 -17.91,0.39 -28.61,6.73 z"
       class="cls-6" />
    <path
       style="fill:#ffffff"
       inkscape:connector-curvature="0"
       id="path84"
       d="m 3694.85,732.57 c -11.68,2.74 -21.55,0.58 -29.77,-6.09 -8.22,-6.67 -14.32,-17.32 -18.88,-32.12 q -1.68,-5.45 -3.45,-10.85 -18.81,6.21 -37.63,12.39 -3.88,-11.86 -8.24,-23.6 52.17,-19.45 104.29,-39.07 7.73,20.76 14.19,41.89 c 4.9,16 5.32,29.16 1.78,38.93 -3.54,9.77 -11.07,15.89 -22.29,18.52 z m -33.73,-55.12 q 1.4,4.26 2.74,8.54 c 2.5,8 5.61,13.6 9.52,16.84 3.91,3.24 8.47,4.15 13.76,2.69 5.29,-1.46 8.79,-4.31 10.36,-8.53 1.57,-4.22 1.24,-10.1 -1.06,-17.55 q -1.91,-6.21 -3.93,-12.38 z"
       class="cls-6" />
    <path
       style="fill:#ffffff"
       inkscape:connector-curvature="0"
       id="path86"
       d="m 3634.3,838.34 a 638.42,638.42 0 0 0 -9.43,-66.65 Q 3679.5,760.94 3734.1,750 a 747.68,747.68 0 0 1 11.11,78.28 L 3726,830 q -2.14,-24.22 -5.9,-48.3 l -24.15,3.85 q 3.38,21.63 5.4,43.42 l -19.35,1.88 q -2,-21.18 -5.25,-42.23 l -28.36,4.48 q 3.38,21.66 5.29,43.5 z"
       class="cls-6" />
    <path
       style="fill:#ffffff"
       inkscape:connector-curvature="0"
       id="path88"
       d="m 3679.46,886.86 q -21.36,0.28 -42.73,0.54 -0.14,-12.39 -0.75,-24.76 55.61,-2.82 111.21,-5.83 1,20 0.94,40 c -0.06,18.65 -3.51,32.39 -9.51,40.92 -6,8.53 -14.75,12.27 -25.93,11.43 a 27.24,27.24 0 0 1 -17,-7.49 c -4.82,-4.46 -8.44,-10.48 -11,-18 -25.85,17.85 -43.1,27.66 -50.87,32.34 q 1.32,-13.71 2.06,-27.45 22.08,-12.83 43.6,-27.54 0.07,-7.12 -0.02,-14.16 z m 19.2,-0.26 q 0,4.38 0,8.77 c 0,8.58 1.08,14.94 3.45,19.12 2.37,4.18 6.19,6.38 11.52,6.57 5.33,0.19 9.12,-1.84 11.48,-6.13 2.36,-4.29 3.64,-11 3.64,-20.16 0,-2.87 0,-5.73 -0.05,-8.6 z"
       class="cls-6" />
    <path
       style="fill:#ffffff"
       inkscape:connector-curvature="0"
       id="path90"
       d="m 3619.68,1041.34 q 13.89,-1.12 27.8,-2.61 4.83,-21.82 8.19,-43.85 -12.43,-6.36 -25,-12.38 1.84,-13.26 3.12,-26.58 a 1017.74,1017.74 0 0 1 105.13,58.66 q -2.85,17.64 -6.56,35.18 a 987.25,987.25 0 0 1 -119.44,17.68 q 3.68,-12.99 6.76,-26.1 z m 48.49,-4.6 c 25.27,-3.38 39.57,-6 42.88,-6.48 3.31,-0.48 5.9,-0.88 7.79,-1 -6,-3.13 -20.74,-11.83 -44.63,-24.76 q -2.62,16.15 -6.04,32.24 z"
       class="cls-6" />
    <path
       style="fill:#ffffff"
       inkscape:connector-curvature="0"
       id="path92"
       d="m 3593.78,1125 q 4.54,-11.79 8.62,-23.69 43.41,14.78 86.87,29.44 6,-17.43 11,-35.08 l 18.91,5.34 a 748.48,748.48 0 0 1 -36,99 l -18,-7.92 q 7.58,-17 14.24,-34.24 -42.86,-16.36 -85.64,-32.85 z"
       class="cls-6" />
    <path
       style="fill:#ffffff"
       inkscape:connector-curvature="0"
       id="path94"
       d="m 3539.93,1232.82 a 644,644 0 0 0 33.62,-61.1 q 50.2,24.06 100.51,48 a 754.55,754.55 0 0 1 -39.4,71.71 l -16.47,-10.15 q 13.42,-21.57 25.21,-43.79 l -21.64,-11.38 q -10.61,20 -22.59,39.42 l -16.5,-10.09 q 11.65,-18.92 22,-38.35 l -25.4,-13.41 q -10.63,20 -22.73,39.46 z"
       class="cls-6" />
    <path
       style="fill:#ffffff"
       inkscape:connector-curvature="0"
       id="path96"
       d="m 753.7,1685.42 q -14.1,-3.11 -28.09,-6.81 11.75,-44.34 23.5,-88.66 -15.48,-4.1 -30.79,-9.07 3,-9.35 6.08,-18.69 a 564.86,564.86 0 0 0 83.5,20.25 q -1.57,9.7 -3.16,19.4 -15.74,-2.56 -31.34,-6 -9.85,44.79 -19.7,89.58 z"
       class="cls-6" />
    <path
       style="fill:#ffffff"
       inkscape:connector-curvature="0"
       id="path98"
       d="m 888.43,1701.09 a 675.7,675.7 0 0 1 -77.79,-5.69 q 7.26,-55.22 14.53,-110.42 a 563.09,563.09 0 0 0 65,4.76 q -0.14,9.67 -0.29,19.34 -21.29,-0.32 -42.51,-2.2 l -2.16,24.36 q 20.58,1.82 41.21,2.24 l -0.39,19.34 q -21.29,-0.43 -42.52,-2.31 -1.28,14.31 -2.53,28.61 23.85,2.1 47.79,2.47 z"
       class="cls-6" />
    <path
       style="fill:#ffffff"
       inkscape:connector-curvature="0"
       id="path100"
       d="m 991.88,1663.48 c 1.46,9.94 -1.6,18.44 -9.53,25.28 -7.93,6.84 -19.89,11.11 -35.58,12.23 -14.46,1 -27.41,-0.75 -38.5,-5.07 q -0.15,-11 -0.31,-21.93 a 134.2,134.2 0 0 0 22.6,6.37 69.42,69.42 0 0 0 17,1 c 6.12,-0.45 10.73,-1.87 13.79,-4.15 a 9.6,9.6 0 0 0 4,-9.28 9,9 0 0 0 -2.7,-5.58 23.7,23.7 0 0 0 -6.6,-4.31 c -2.83,-1.33 -8.54,-3.33 -17,-6.25 -7.88,-2.7 -13.72,-5.54 -17.61,-8.34 a 33.43,33.43 0 0 1 -9.29,-10 26.92,26.92 0 0 1 -3.56,-13.65 c -0.16,-9.85 3.25,-17.62 9.91,-23.49 6.66,-5.87 15.81,-9.12 27.7,-10.12 a 77,77 0 0 1 16.95,0.38 150.13,150.13 0 0 1 17.48,3.57 q -2.57,9.64 -5.38,19.27 a 159.79,159.79 0 0 0 -16.07,-3.25 56.88,56.88 0 0 0 -12.12,-0.32 c -4.67,0.39 -8.18,1.67 -10.55,3.91 a 10.17,10.17 0 0 0 -3.3,8.37 9.47,9.47 0 0 0 1.88,5.35 16.18,16.18 0 0 0 5.27,4.16 c 2.38,1.28 8,3.51 17,6.43 11.89,3.85 20.44,7.74 25.44,12.12 a 27.5,27.5 0 0 1 9.08,17.3 z"
       class="cls-6" />
    <path
       style="fill:#ffffff"
       inkscape:connector-curvature="0"
       id="path102"
       d="m 1071.91,1678.61 q -14,3.71 -28.1,6.81 -9.84,-44.79 -19.69,-89.58 -15.6,3.44 -31.34,6 -1.59,-9.71 -3.17,-19.4 a 565,565 0 0 0 83.51,-20.25 q 3,9.35 6.07,18.69 -15.3,5 -30.79,9.07 11.76,44.33 23.51,88.66 z"
       class="cls-6" />
    <path
       style="fill:#ffffff"
       inkscape:connector-curvature="0"
       id="path104"
       d="m 199.08,1156 q -9.79,-20 -18.09,-40.45 c -7.55,-18.66 -10.07,-33.23 -8.59,-43.1 1.48,-9.87 7.13,-16.17 16.5,-19 6.37,-1.93 12.13,-1.71 17.29,0.51 a 23.5,23.5 0 0 1 11.81,11.4 l 0.73,-0.24 c -1.16,-8.27 -0.09,-14.78 3,-19.44 3.09,-4.66 8.1,-8 15,-10 9.75,-2.88 18.44,-1.29 26.22,4.36 7.78,5.65 13.79,14.54 18.57,26.82 q 7.9,20.34 17.6,40.13 z m 27.84,-45 q -3.22,-7.47 -6.23,-15 c -2.81,-7 -5.64,-11.81 -8.67,-14.33 -3.03,-2.52 -6.69,-3 -11,-1.49 a 9.36,9.36 0 0 0 -6.68,8.48 c -0.42,4.23 0.84,10.26 3.95,18 q 2.86,7.11 5.9,14.17 z m 17.21,-7.42 26.64,-11.51 q -3.31,-7.69 -6.4,-15.48 c -2.59,-6.57 -5.55,-11 -9,-13.35 -3.45,-2.35 -7.65,-2.69 -12.49,-1 -8.7,3 -10.7,11.71 -5.14,25.82 q 3.05,7.82 6.39,15.54 z"
       class="cls-6" />
    <path
       style="fill:#ffffff"
       inkscape:connector-curvature="0"
       id="path106"
       d="M 136.11,918.84 208,914.27 a 40.36,40.36 0 0 1 22,4.5 40,40 0 0 1 15.7,15.43 c 4.05,6.83 6.73,15 8.24,24.65 2.28,14.55 1,26.42 -4.29,36.21 -5.29,9.79 -13.95,16.41 -26.32,19.52 L 153.75,1032 q -3.62,-14.38 -6.53,-28.89 l 66.84,-13.46 c 8.41,-1.7 14.2,-4.81 17.44,-9.23 3.24,-4.42 4.1,-10.78 2.79,-19.19 -1.26,-8.15 -4,-13.8 -8.47,-17 -4.47,-3.2 -11,-4.45 -19.54,-3.51 l -67.61,7.49 q -1.62,-14.67 -2.56,-29.37 z"
       class="cls-6" />
    <path
       style="fill:#ffffff"
       inkscape:connector-curvature="0"
       id="path108"
       d="m 246.23,883.7 -111.36,1 q -0.13,-14.78 0.42,-29.54 l 111.28,4.18 q -0.45,12.2 -0.34,24.36 z"
       class="cls-6" />
    <path
       style="fill:#ffffff"
       inkscape:connector-curvature="0"
       id="path110"
       d="M 248.46,830.57 137.58,820.2 q 1.36,-14.72 3.44,-29.39 l 91,12.84 q 3.39,-24 8.93,-47.62 l 19,4.45 a 518.82,518.82 0 0 0 -11.49,70.09 z"
       class="cls-6" />
    <path
       style="fill:#ffffff"
       inkscape:connector-curvature="0"
       id="path112"
       d="m 248.12,625.75 c 16.47,8.09 26.37,19.62 30.61,33.89 4.24,14.27 2.56,30.63 -4.16,50 Q 269.2,725.21 264.85,741 L 157.49,711.4 q 5.87,-21.27 13.24,-42.19 c 7.7,-21.77 19.32,-36.63 33.23,-44.1 13.91,-7.47 28.74,-6.95 44.16,0.64 z M 236.71,652 c -21.81,-9.57 -38.37,-2.39 -47.23,22.23 q -2.59,7.28 -5,14.61 l 68.92,22.56 q 1.69,-5.21 3.52,-10.39 C 265.09,678 259.17,661.88 236.71,652 Z"
       class="cls-6" />
  </g>
</svg>
