<?xml version="1.0" encoding="utf-8"?>
<!-- Svg Vector Icons : http://www.onlinewebfonts.com/icon -->
<!DOCTYPE svg PUBLIC "-//W3C//DTD SVG 1.1//EN" "http://www.w3.org/Graphics/SVG/1.1/DTD/svg11.dtd">
<svg version="1.1" xmlns="http://www.w3.org/2000/svg" xmlns:xlink="http://www.w3.org/1999/xlink" x="0px" y="0px" viewBox="0 0 1000 1000" enable-background="new 0 0 1000 1000" xml:space="preserve">
<metadata> Svg Vector Icons : http://www.onlinewebfonts.com/icon </metadata>
<g><path d="M738.3,296.7L652.8,382c-2.9,2.8-2.9,7.4,0,10.3c2.8,2.8,7.4,2.8,10.3,0l85.5-85.4c2.9-2.8,2.9-7.4,0-10.3C745.7,293.8,741.1,293.8,738.3,296.7z"/><path d="M500,10C229.4,10,10,229.4,10,500c0,270.6,219.4,490,490,490c270.6,0,490-219.4,490-490C990,229.4,770.6,10,500,10z M574.8,226.2l15.6-39.5l15.6,39.5l39.5,15.6L606,257.3l-15.6,39.5l-15.6-39.5l-39.5-15.6L574.8,226.2z M357,275.9l31.9-139.2l34.5,139.2l131.6,29.4l-131.6,34.5l-34.5,140.5L357,339.7l-140.5-31.3L357,275.9z M246.1,500.4l13.4-58.5l14.5,58.5l55.3,12.3L274,527.3l-14.5,59l-13.4-59l-59-13.1L246.1,500.4z M299.5,858.3c-6.8,6.8-17.9,6.8-24.7,0l-47.3-47.4c-6.8-6.8-6.8-17.9,0-24.7l373.8-373.3l72,72.1L299.5,858.3z M614.7,399.5L743.4,271c6.8-6.8,17.9-6.8,24.7,0l47.3,47.4c6.8,6.8,6.8,17.9,0,24.7L686.7,471.6L614.7,399.5z M826,549.7l-19,48.2l-19-48.2l-48.2-19l48.2-19l19-48.2l19,48.2l48.2,19L826,549.7z"/></g>
</svg>