<svg xmlns="http://www.w3.org/2000/svg" viewBox="0 0 56 56"><path d="M3.6 3.6h1.8v1.8H3.6V3.6zm3.6 0H9v1.8H7.2V3.6zm3.6 0h1.8v1.8h-1.8V3.6zM3.6 7.2h41.5V9H3.6V7.2zm11.8 7.3h15.4v1.8H15.4v-1.8zm0 3.6h6.3v1.8h-6.3v-1.8zm8.1 0h12.6v1.8H23.5v-1.8zm9-3.6h9v1.8h-9v-1.8zM8.1 21.7a4.48 4.48 0 0 1-4.5-4.5 4.48 4.48 0 0 1 4.5-4.5 4.48 4.48 0 0 1 4.5 4.5 4.48 4.48 0 0 1-4.5 4.5zm0-7.2a2.69 2.69 0 0 0-2.7 2.7 2.69 2.69 0 0 0 2.7 2.7 2.69 2.69 0 0 0 2.7-2.7 2.69 2.69 0 0 0-2.7-2.7zm7.3 10.8h15.4v1.8H15.4v-1.8zm0 3.6h6.3v1.8h-6.3v-1.8zm-7.3 3.6A4.48 4.48 0 0 1 3.6 28a4.48 4.48 0 0 1 4.5-4.5 4.48 4.48 0 0 1 4.5 4.5 4.48 4.48 0 0 1-4.5 4.5zm0-7.2a2.69 2.69 0 1 0 0 5.4 2.69 2.69 0 1 0 0-5.4zm7.3 14.4h6.3v1.8h-6.3v-1.8zm17.1-3.6h9v1.8h-9v-1.8zM8.1 43.4a4.48 4.48 0 1 1 0-9 4.48 4.48 0 0 1 4.5 4.5 4.55 4.55 0 0 1-4.5 4.5zm0-7.3a2.69 2.69 0 1 0 0 5.4 2.69 2.69 0 1 0 0-5.4z" fill="#5eb3d1"/><path d="M7.5 16.5l5.4-5.4 1.3 1.3-5.4 5.4-1.3-1.3zm0 10.9l5.4-5.4 1.3 1.3-5.4 5.4-1.3-1.3zm0 10.8l5.4-5.4 1.3 1.3-5.4 5.4-1.3-1.3z" fill="#e34b87"/><path d="M55.1 40.6c0 7-5.7 12.6-12.6 12.6s-12.6-5.7-12.6-12.6S35.5 28 42.5 28s12.6 5.7 12.6 12.6z" fill="#fff"/><path d="M4.5 48.8H28V47H4.5a2.69 2.69 0 0 1-2.7-2.7V4.5a2.69 2.69 0 0 1 2.7-2.7h39.7C45.8 1.8 47 3 47 4.5v20.8h1.8V4.5A4.48 4.48 0 0 0 44.3 0H4.5A4.48 4.48 0 0 0 0 4.5v39.7c0 2.6 2 4.6 4.5 4.6zM3.6 3.6h1.8v1.8H3.6V3.6zm3.6 0H9v1.8H7.2V3.6zm3.6 0h1.8v1.8h-1.8V3.6zM3.6 7.2h41.5V9H3.6V7.2z"/><path d="M12.9 11.1l-2.3 2.3c-2.1-1.4-4.9-.8-6.3 1.3-1.3 2.1-.8 4.9 1.3 6.3s4.9.8 6.3-1.3c1-1.5 1-3.5 0-5l2.3-2.3-1.3-1.3zm-4.8 8.8a2.69 2.69 0 0 1-2.7-2.7 2.69 2.69 0 0 1 2.7-2.7c.4 0 .8.1 1.2.3l-1.8 1.8 1.3 1.3 1.8-1.8c.2.4.3.8.3 1.2-.1 1.4-1.3 2.6-2.8 2.6z" fill="#9cf"/><path d="M15.4 14.5h15.4v1.8H15.4v-1.8zm0 3.6h6.3v1.8h-6.3v-1.8zm8.1 0h12.6v1.8H23.5v-1.8zm9-3.6h9v1.8h-9v-1.8z"/><path d="M12.9 21.9l-2.3 2.3c-2.1-1.4-4.9-.8-6.3 1.3s-.8 4.9 1.3 6.3 4.9.8 6.3-1.3c1-1.5 1-3.5 0-5l2.3-2.3-1.3-1.3zm-4.8 8.8a2.69 2.69 0 1 1 0-5.4c.4 0 .8.1 1.2.3l-1.8 1.8 1.3 1.3 1.8-1.8c.2.4.3.8.3 1.2-.1 1.4-1.3 2.6-2.8 2.6z" fill="#9cf"/><path d="M15.4 25.3h15.4v1.8H15.4v-1.8zm0 3.6h6.3v1.8h-6.3v-1.8zm8.1 0h7.2v1.8h-7.2v-1.8zm9-3.6h3.6v1.8h-3.6v-1.8z"/><path d="M12.9 32.8l-2.3 2.3c-2.1-1.4-4.9-.8-6.3 1.3s-.8 4.9 1.3 6.3 4.9.8 6.3-1.3c1-1.5 1-3.5 0-5l2.3-2.3-1.3-1.3zm-4.8 8.7a2.69 2.69 0 1 1 0-5.4c.4 0 .8.1 1.2.3l-1.8 1.8 1.3 1.3 1.8-1.8c.2.4.3.8.3 1.2-.1 1.4-1.3 2.6-2.8 2.6z" fill="#9cf"/><path d="M15.4 36.1h11.7v1.8H15.4v-1.8zm0 3.6h6.3v1.8h-6.3v-1.8zm8.1 0h3.6v1.8h-3.6v-1.8zm19 14.5C50 54.2 56 48.1 56 40.7s-6.1-13.5-13.5-13.5S29 33.3 29 40.7c-.1 7.4 6 13.5 13.5 13.5zm0-25.3c6.5 0 11.7 5.3 11.7 11.7s-5.3 11.7-11.7 11.7S30.8 47 30.8 40.6c-.1-6.4 5.2-11.7 11.7-11.7z"/><g fill="#9cf"><path d="M50 42.5v-2.7l-1.7-.3c-.1-.4-.3-.9-.5-1.3l1-1.4-1.9-1.9-1.4 1c-.4-.2-.8-.4-1.3-.5l-.3-1.7h-2.7l-.3 1.7c-.4.1-.9.3-1.3.5l-1.4-1-1.9 1.9 1 1.4c-.2.4-.4.8-.5 1.3l-1.8.3v2.7l1.7.3c.1.4.3.9.5 1.3l-1 1.4 1.9 1.9 1.4-1c.4.2.8.4 1.3.5l.3 1.7h2.7l.3-1.7c.4-.1.9-.3 1.3-.5l1.4 1 1.9-1.9-1-1.4c.2-.4.4-.8.5-1.3l1.8-.3zm-7.5 1.8c-1.8 0-3.2-1.4-3.2-3.2s1.4-3.2 3.2-3.2 3.2 1.4 3.2 3.2-1.4 3.2-3.2 3.2z"/><path d="M42.5 36.8c-2.4 0-4.4 2-4.4 4.4s2 4.4 4.4 4.4 4.4-2 4.4-4.4-2-4.4-4.4-4.4zm0 7.5c-1.8 0-3.2-1.4-3.2-3.2s1.4-3.2 3.2-3.2 3.2 1.4 3.2 3.2-1.4 3.2-3.2 3.2z"/></g><path d="M42.5 37.5a3.76 3.76 0 0 0-3.7 3.7 3.76 3.76 0 0 0 3.7 3.7 3.76 3.76 0 0 0 3.7-3.7c0-2.1-1.7-3.7-3.7-3.7zm0 6.3a2.69 2.69 0 1 1 0-5.4 2.69 2.69 0 1 1 0 5.4zm7.3-4.5l-1.4-.2-.3-.8.9-1.2c.1-.2.1-.5-.1-.7l-.2-.2c-.2-.2-.5-.2-.7 0a.47.47 0 0 0-.1.6l-.8 1.2c-.1.2-.1.4 0 .6.2.4.4.7.5 1.1a.78.78 0 0 0 .4.4l1.3.2v1.9l-1.3.2c-.2 0-.4.2-.4.4-.1.4-.3.8-.5 1.1-.1.2-.1.4 0 .6l.8 1.1-1.3 1.3-1.1-.8c-.2-.1-.4-.1-.6 0-.4.2-.7.4-1.1.5a.78.78 0 0 0-.4.4l-.2 1.3h-1.9l-.2-1.3c0-.2-.2-.4-.4-.4-.4-.1-.8-.3-1.1-.5-.2-.1-.4-.1-.6 0l-1.1.8-1.3-1.3.8-1.1c.1-.2.1-.4 0-.6-.2-.4-.4-.7-.5-1.1a.78.78 0 0 0-.4-.4l-1.3-.2v-1.9l1.3-.2c.2 0 .4-.2.4-.4.1-.4.3-.8.5-1.1.1-.2.1-.4 0-.6l-.8-1.1 1.3-1.3 1.1.8c.2.1.4.1.6 0 .4-.2.7-.4 1.1-.5a.78.78 0 0 0 .4-.4l.2-1.3h1.9l.2 1.3c0 .2.2.4.4.4.4.1.8.3 1.1.5.2.1.4.1.6 0l1.1-.8c.2.2.5.2.7 0s.2-.5 0-.7l-.3-.3c-.2-.2-.5-.2-.7-.1l-1.2.9c-.2-.1-.5-.2-.8-.3l-.2-1.4c0-.2-.3-.4-.5-.4h-.9V32a.47.47 0 0 0-.5-.5.47.47 0 0 0-.5.5v1.3h-.9c-.3 0-.5.2-.5.4l-.1 1.3-.8.3-1.2-.9c-.2-.1-.5-.1-.7.1l-1.9 1.9c-.2.2-.2.5-.1.7l.9 1.2c-.1.2-.2.5-.3.8l-1.4.2c-.2 0-.4.3-.4.5v2.7c0 .3.2.5.4.5l1.4.2.3.8-.9 1.2c-.1.2-.1.5.1.7l1.9 1.9c.2.2.5.2.7.1l1.2-.9c.2.1.5.2.8.3l.2 1.4c0 .2.3.4.5.4h2.7c.3 0 .5-.2.5-.4l.2-1.4.8-.3 1.2.9c.2.1.5.1.7-.1l1.9-1.9c.2-.2.2-.5.1-.7l-.9-1.2c.1-.2.2-.5.3-.8l1.4-.2c.2 0 .4-.3.4-.5v-2.7c.1-.3-.1-.5-.4-.5z"/></svg>