<?xml version="1.0" encoding="UTF-8" standalone="no"?>
<!-- Generator: Adobe Illustrator 23.0.2, SVG Export Plug-In . SVG Version: 6.00 Build 0)  -->

<svg
   xmlns:dc="http://purl.org/dc/elements/1.1/"
   xmlns:cc="http://creativecommons.org/ns#"
   xmlns:rdf="http://www.w3.org/1999/02/22-rdf-syntax-ns#"
   xmlns:svg="http://www.w3.org/2000/svg"
   xmlns="http://www.w3.org/2000/svg"
   xmlns:sodipodi="http://sodipodi.sourceforge.net/DTD/sodipodi-0.dtd"
   xmlns:inkscape="http://www.inkscape.org/namespaces/inkscape"
   version="1.1"
   id="Layer_1"
   focusable="false"
   x="0px"
   y="0px"
   viewBox="0 0 90.7 90.7"
   style="enable-background:new 0 0 90.7 90.7;"
   xml:space="preserve"
   sodipodi:docname="icon.svg"
   inkscape:version="0.92.4 (5da689c313, 2019-01-14)"><metadata
   id="metadata9"><rdf:RDF><cc:Work
       rdf:about=""><dc:format>image/svg+xml</dc:format><dc:type
         rdf:resource="http://purl.org/dc/dcmitype/StillImage" /></cc:Work></rdf:RDF></metadata><defs
   id="defs7" /><sodipodi:namedview
   pagecolor="#ffffff"
   bordercolor="#666666"
   borderopacity="1"
   objecttolerance="10"
   gridtolerance="10"
   guidetolerance="10"
   inkscape:pageopacity="0"
   inkscape:pageshadow="2"
   inkscape:window-width="2880"
   inkscape:window-height="1586"
   id="namedview5"
   showgrid="false"
   inkscape:zoom="14.719048"
   inkscape:cx="13.166686"
   inkscape:cy="36.664695"
   inkscape:window-x="-11"
   inkscape:window-y="-11"
   inkscape:window-maximized="1"
   inkscape:current-layer="Layer_1" />
<path
   d="m 69.4,24.1 c -4.7,0 -9.1,1.6 -12.7,4.2 L 61.527499,28.75571 60.9,33.1 c 2.4,-1.6 5.3,-2.6 8.4,-2.6 8.2,0 14.9,6.7 14.9,14.9 0,8.2 -6.7,14.9 -14.9,14.9 -4.4,0 -8.4,-1.9 -11.2,-5 C 58,55.1 57.8,55 57.7,54.8 v 0 L 49.4,45.4 58,35.7 58.795438,30.812197 53.9,30.8 53.7,31 v 0 l -8.5,9.6 -7.9,-9 C 37.2,31.5 37.1,31.4 37.1,31.3 L 36.8,31 v 0 C 32.9,26.8 27.4,24.1 21.2,24.1 9.5,24.1 0,33.6 0,45.4 c 0,11.8 9.5,21.3 21.3,21.3 4.9,0 9.4,-1.7 13,-4.5 L 34.5,57.6 30,57.4 c -2.5,1.8 -5.5,2.8 -8.7,2.8 -8.2,0 -14.9,-6.7 -14.9,-14.9 0,-8.2 6.6,-14.9 14.9,-14.9 4.7,0 8.8,2.2 11.6,5.5 l 8.3,9.4 -8.3,9.5 4.4,0.2 -0.2,4.6 v 0 0 l 8.3,-9.4 8.4,9.5 v 0 c 3.9,4.3 9.5,6.9 15.7,6.9 11.7,0 21.3,-9.5 21.3,-21.3 0,-11.8 -9.6,-21.2 -21.4,-21.2 z"
   id="path2"
   inkscape:connector-curvature="0"
   sodipodi:nodetypes="scccsssccccccccccccccssscccsssccccccccccsss" />
</svg>