<?xml version="1.0" standalone="no"?><!DOCTYPE svg PUBLIC "-//W3C//DTD SVG 1.1//EN" "http://www.w3.org/Graphics/SVG/1.1/DTD/svg11.dtd"><svg class="icon" height="512" viewBox="0 0 1024 1024" version="1.1" xmlns="http://www.w3.org/2000/svg"><path d="M689.846524 385.375068l134.785799-134.787846-49.223075-49.223075L640.623449 336.149946 689.846524 385.375068zM896.490931 229.835595c0 8.280594-2.759857 15.180747-8.27957 20.700461l-638.800941 635.473149c-5.520737 5.520737-12.420891 8.280594-20.700461 8.280594-8.280594 0-15.180747-2.759857-20.701484-8.280594l-70.618361-71.51273c-5.520737-5.520737-8.280594-12.420891-8.280594-20.700461 0-8.280594 2.759857-15.180747 8.280594-20.701484l638.800941-635.472126c5.520737-5.520737 12.420891-8.280594 20.700461-8.280594 8.27957 0 15.180747 2.759857 20.700461 8.280594l70.620407 71.51273C893.731074 214.654848 896.490931 221.555002 896.490931 229.835595L896.490931 229.835595zM262.581394 174.423565l45.081755 13.801331-45.081755 13.801331-13.801331 45.081755-13.801331-45.081755-45.082778-13.801331 45.082778-13.801331 13.801331-45.081755L262.581394 174.423565 262.581394 174.423565zM423.587368 248.945839l90.164532 27.601638-90.164532 27.601638L395.986753 394.313647l-27.601638-90.164532-90.164532-27.601638 90.164532-27.601638 27.601638-90.164532L423.587368 248.945839 423.587368 248.945839zM851.408153 498.199693l45.081755 13.800307-45.081755 13.801331-13.801331 45.081755-13.802354-45.081755-45.081755-13.801331 45.081755-13.801331 13.802354-45.081755L851.408153 498.199693 851.408153 498.199693zM556.995797 174.423565l45.081755 13.801331-45.081755 13.801331-13.801331 45.081755-13.801331-45.081755-45.081755-13.801331 45.081755-13.801331 13.801331-45.081755L556.995797 174.423565 556.995797 174.423565z" /></svg>